<svg version="1.1" id="Layer_1" xmlns="http://www.w3.org/2000/svg" xmlns:xlink="http://www.w3.org/1999/xlink" x="0px" y="0px"
	 width="100%" viewBox="0 0 512 512" enable-background="new 0 0 512 512" xml:space="preserve">
<path fill="none" opacity="1.000000" stroke="none" 
	d="
M236.000000,513.000000 
	C157.699829,513.000000 79.399651,513.000000 1.099480,513.000000 
	C1.066322,512.866577 1.004097,512.733093 1.004094,512.599670 
	C0.999977,342.171844 1.000000,171.744034 1.000000,1.000000 
	C93.688438,1.000000 186.377243,1.000000 279.439331,1.350345 
	C278.541321,4.726189 276.294464,7.718873 276.191345,10.783670 
	C275.936829,18.350740 276.854156,25.948116 276.964966,33.538208 
	C277.382111,62.115730 277.730286,90.694649 277.973511,119.274170 
	C278.112457,135.600021 277.868652,151.929352 278.034607,168.254684 
	C278.206543,185.172913 278.435516,202.098541 279.194611,218.995987 
	C279.344604,222.334549 281.183136,227.073929 283.725952,228.474106 
	C287.328461,230.457840 291.753601,228.986404 295.225525,225.416580 
	C307.536621,212.758362 320.129181,200.373871 332.615692,187.886261 
	C369.133636,151.365112 405.614899,114.807114 442.213806,78.367325 
	C447.129028,73.473473 447.314545,70.007690 443.434723,66.220917 
	C435.008514,57.996788 426.065643,50.197960 416.687927,43.075958 
	C400.674133,30.914110 383.012939,21.509935 364.103760,14.600561 
	C349.216461,9.160775 334.013489,4.876656 318.210297,2.965143 
	C314.449310,2.510223 310.735504,1.665452 307.000000,0.999999 
	C375.635376,1.000000 444.270752,1.000000 512.953064,1.000000 
	C512.953064,171.557602 512.953064,342.115234 512.953064,513.000000 
	C434.978302,513.000000 356.956116,513.000000 278.635040,512.605591 
	C288.906525,510.475311 299.591400,509.247742 310.023865,506.899139 
	C332.719025,501.789825 353.651154,492.343781 373.499298,480.225891 
	C392.808289,468.437103 409.535248,453.679474 424.469788,436.879425 
	C430.824371,429.731018 436.695953,422.029358 441.893127,414.000519 
	C454.482635,394.551575 464.790802,373.887268 470.181976,351.242706 
	C473.515533,337.240662 476.475159,322.992371 477.698792,308.691711 
	C478.807953,295.728790 478.121857,282.464264 476.782990,269.481659 
	C475.458801,256.641449 472.947205,243.834061 469.839752,231.288895 
	C465.439758,213.525818 458.274811,196.671234 448.474274,181.222961 
	C440.760071,169.063248 431.984558,157.560486 423.366425,146.000046 
	C420.608093,142.300018 416.879578,139.313568 413.534149,136.063217 
	C409.166656,131.819794 404.901123,132.602798 398.729553,138.772537 
	C355.949951,181.539474 313.174408,224.310486 270.422913,267.105499 
	C269.188629,268.341034 268.234955,269.856903 267.150391,271.242035 
	C266.003784,269.567932 266.008148,268.625641 266.003113,267.683380 
	C265.670471,205.103134 265.335022,142.522919 265.007050,79.942642 
	C264.974823,73.794853 262.246887,70.701721 256.079590,71.071579 
	C243.472687,71.827637 230.729599,72.074829 218.333817,74.216866 
	C193.730331,78.468437 170.376968,86.678650 148.505737,99.027702 
	C125.262833,112.151215 105.509262,129.263428 88.037506,149.329742 
	C73.300636,166.255035 61.995541,185.194260 53.048996,205.644989 
	C43.426582,227.640686 37.859226,250.795197 36.223576,274.593781 
	C34.665218,297.267578 35.666885,320.058380 41.164017,342.301239 
	C46.365185,363.346497 54.067558,383.450409 64.988823,402.294006 
	C79.083511,426.612976 97.090439,447.594788 118.863731,465.220490 
	C135.662170,478.819000 154.317795,489.597961 174.380920,497.642273 
	C188.913254,503.468994 203.890121,508.025024 219.531479,510.062256 
	C225.054825,510.781677 230.512405,512.006104 236.000000,513.000000 
z"/>
<path fill="#46280F" opacity="1.000000" stroke="none" 
	d="
M236.468658,513.000000 
	C230.512405,512.006104 225.054825,510.781677 219.531479,510.062256 
	C203.890121,508.025024 188.913254,503.468994 174.380920,497.642273 
	C154.317795,489.597961 135.662170,478.819000 118.863731,465.220490 
	C97.090439,447.594788 79.083511,426.612976 64.988823,402.294006 
	C54.067558,383.450409 46.365185,363.346497 41.164017,342.301239 
	C35.666885,320.058380 34.665218,297.267578 36.223576,274.593781 
	C37.859226,250.795197 43.426582,227.640686 53.048996,205.644989 
	C61.995541,185.194260 73.300636,166.255035 88.037506,149.329742 
	C105.509262,129.263428 125.262833,112.151215 148.505737,99.027702 
	C170.376968,86.678650 193.730331,78.468437 218.333817,74.216866 
	C230.729599,72.074829 243.472687,71.827637 256.079590,71.071579 
	C262.246887,70.701721 264.974823,73.794853 265.007050,79.942642 
	C265.335022,142.522919 265.670471,205.103134 266.003113,267.683380 
	C266.008148,268.625641 266.003784,269.567932 267.150391,271.242035 
	C268.234955,269.856903 269.188629,268.341034 270.422913,267.105499 
	C313.174408,224.310486 355.949951,181.539474 398.729553,138.772537 
	C404.901123,132.602798 409.166656,131.819794 413.534149,136.063217 
	C416.879578,139.313568 420.608093,142.300018 423.366425,146.000046 
	C431.984558,157.560486 440.760071,169.063248 448.474274,181.222961 
	C458.274811,196.671234 465.439758,213.525818 469.839752,231.288895 
	C472.947205,243.834061 475.458801,256.641449 476.782990,269.481659 
	C478.121857,282.464264 478.807953,295.728790 477.698792,308.691711 
	C476.475159,322.992371 473.515533,337.240662 470.181976,351.242706 
	C464.790802,373.887268 454.482635,394.551575 441.893127,414.000519 
	C436.695953,422.029358 430.824371,429.731018 424.469788,436.879425 
	C409.535248,453.679474 392.808289,468.437103 373.499298,480.225891 
	C353.651154,492.343781 332.719025,501.789825 310.023865,506.899139 
	C299.591400,509.247742 288.906525,510.475311 278.168060,512.605591 
	C264.312439,513.000000 250.624878,513.000000 236.468658,513.000000 
M316.915588,362.139099 
	C314.677826,360.092102 312.440063,358.045135 309.851044,355.412384 
	C295.198395,340.807404 280.545776,326.202423 265.412537,311.118408 
	C265.412537,365.084564 265.412537,417.978973 265.412537,471.331421 
	C308.706696,468.488312 346.300293,453.203796 377.601685,424.901337 
	C357.193481,403.987061 337.097412,383.392700 316.915588,362.139099 
M90.923531,391.549286 
	C90.220451,390.225739 89.545029,388.886627 88.810280,387.580902 
	C67.864365,350.358582 60.145256,310.358337 65.286751,268.171417 
	C69.688866,232.051315 83.411247,199.515182 106.487640,171.125107 
	C136.904022,133.704941 175.752411,110.450676 223.211517,101.794678 
	C231.990891,100.193420 240.906448,99.338982 249.623352,98.158241 
	C249.623352,94.639282 249.623352,91.261787 249.623352,87.888138 
	C162.175888,89.952507 75.708778,154.269699 56.240475,254.323685 
	C37.340115,351.458832 91.641357,449.221100 185.095276,484.736115 
	C278.877563,520.375916 381.753326,483.902649 433.077728,400.270447 
	C486.806122,312.720978 464.137268,210.600571 407.848724,153.210098 
	C405.627167,155.810532 403.409393,158.406586 401.080566,161.132599 
	C401.359497,161.511017 401.712524,162.066788 402.139496,162.558304 
	C438.648376,204.583145 455.505249,253.185654 451.112701,308.894501 
	C447.752167,351.514618 432.117889,389.333435 403.457520,420.752899 
	C355.786682,473.012939 296.166412,494.008942 226.014786,483.908844 
	C200.841309,480.284485 177.562820,471.094177 155.915482,457.731354 
	C129.028366,441.134033 107.658432,419.122070 90.923531,391.549286 
M80.047081,271.686768 
	C79.725769,275.938049 79.404457,280.189362 79.067619,284.645966 
	C132.451721,284.645966 185.336807,284.645966 237.550247,284.645966 
	C200.302277,247.396393 162.827560,209.920074 125.193855,172.284744 
	C99.885094,199.960831 85.179848,233.144485 80.047081,271.686768 
M320.976227,344.523773 
	C343.685944,367.235260 366.395660,389.946716 389.309021,412.861816 
	C418.627563,380.702942 433.888092,343.313416 436.204834,300.373657 
	C382.917175,300.373657 330.193634,300.373657 276.719360,300.373657 
	C291.709686,315.327454 306.092926,329.675629 320.976227,344.523773 
M371.500000,284.866852 
	C393.190765,284.866852 414.881531,284.866852 436.760712,284.866852 
	C433.767944,241.111038 418.536743,203.511200 390.895203,173.127487 
	C352.954315,210.571198 315.388458,247.644760 277.672150,284.866821 
	C308.636200,284.866821 339.568115,284.866821 371.500000,284.866852 
M173.933334,365.433411 
	C195.348557,344.009796 216.763794,322.586212 238.884109,300.457245 
	C184.791458,300.457245 132.097244,300.457245 79.012383,300.457245 
	C81.519402,343.748810 96.721649,381.334167 125.400108,413.024078 
	C141.625290,397.117340 157.529358,381.525421 173.933334,365.433411 
M239.799866,321.299377 
	C205.475113,355.623596 171.150375,389.947845 136.689484,424.408234 
	C169.241302,453.305847 206.748123,468.489044 249.673264,470.915466 
	C249.673264,417.763062 249.673264,364.992828 249.673264,310.573181 
	C245.899078,314.690735 243.099579,317.744934 239.799866,321.299377 
M150.762482,174.737335 
	C183.557602,207.532913 216.352737,240.328476 249.730591,273.706787 
	C249.730591,219.769531 249.730591,166.904480 249.730591,113.732796 
	C206.408295,116.122841 168.946976,131.533401 136.319107,160.992188 
	C141.107315,165.540665 145.684860,169.889038 150.762482,174.737335 
z"/>
<path fill="#45270E" opacity="1.000000" stroke="none" 
	d="
M306.531342,0.999999 
	C310.735504,1.665452 314.449310,2.510223 318.210297,2.965143 
	C334.013489,4.876656 349.216461,9.160775 364.103760,14.600561 
	C383.012939,21.509935 400.674133,30.914110 416.687927,43.075958 
	C426.065643,50.197960 435.008514,57.996788 443.434723,66.220917 
	C447.314545,70.007690 447.129028,73.473473 442.213806,78.367325 
	C405.614899,114.807114 369.133636,151.365112 332.615692,187.886261 
	C320.129181,200.373871 307.536621,212.758362 295.225525,225.416580 
	C291.753601,228.986404 287.328461,230.457840 283.725952,228.474106 
	C281.183136,227.073929 279.344604,222.334549 279.194611,218.995987 
	C278.435516,202.098541 278.206543,185.172913 278.034607,168.254684 
	C277.868652,151.929352 278.112457,135.600021 277.973511,119.274170 
	C277.730286,90.694649 277.382111,62.115730 276.964966,33.538208 
	C276.854156,25.948116 275.936829,18.350740 276.191345,10.783670 
	C276.294464,7.718873 278.541321,4.726189 279.906311,1.350345 
	C288.687561,1.000000 297.375122,1.000000 306.531342,0.999999 
M294.392914,101.499893 
	C294.392914,134.858032 294.392914,168.216156 294.392914,201.705109 
	C332.275330,163.850967 369.700745,126.453484 407.396057,88.786301 
	C375.384094,60.384617 337.875763,45.075481 294.393250,42.799213 
	C294.393250,62.560177 294.393250,81.530029 294.392914,101.499893 
M401.484589,51.015717 
	C368.488373,29.029520 332.175140,17.588337 292.137970,16.131144 
	C292.137970,18.707232 292.112671,20.675642 292.146820,22.643023 
	C292.169525,23.949902 292.277252,25.255306 292.378754,27.159107 
	C340.728943,29.341434 382.930450,46.630299 418.604767,78.689835 
	C421.449249,76.046593 423.957642,73.715660 427.264771,70.642479 
	C418.630920,64.061722 410.349487,57.749546 401.484589,51.015717 
z"/>
<path fill="#EEBF48" opacity="1.000000" stroke="none" 
	d="
M91.080009,391.879639 
	C107.658432,419.122070 129.028366,441.134033 155.915482,457.731354 
	C177.562820,471.094177 200.841309,480.284485 226.014786,483.908844 
	C296.166412,494.008942 355.786682,473.012939 403.457520,420.752899 
	C432.117889,389.333435 447.752167,351.514618 451.112701,308.894501 
	C455.505249,253.185654 438.648376,204.583145 402.139496,162.558304 
	C401.712524,162.066788 401.359497,161.511017 401.080566,161.132599 
	C403.409393,158.406586 405.627167,155.810532 407.848724,153.210098 
	C464.137268,210.600571 486.806122,312.720978 433.077728,400.270447 
	C381.753326,483.902649 278.877563,520.375916 185.095276,484.736115 
	C91.641357,449.221100 37.340115,351.458832 56.240475,254.323685 
	C75.708778,154.269699 162.175888,89.952507 249.623352,87.888138 
	C249.623352,91.261787 249.623352,94.639282 249.623352,98.158241 
	C240.906448,99.338982 231.990891,100.193420 223.211517,101.794678 
	C175.752411,110.450676 136.904022,133.704941 106.487640,171.125107 
	C83.411247,199.515182 69.688866,232.051315 65.286751,268.171417 
	C60.145256,310.358337 67.864365,350.358582 88.810280,387.580902 
	C89.545029,388.886627 90.220451,390.225739 91.080009,391.879639 
z"/>
<path fill="#F3D3AA" opacity="1.000000" stroke="none" 
	d="
M80.073570,271.234467 
	C85.179848,233.144485 99.885094,199.960831 125.193855,172.284744 
	C162.827560,209.920074 200.302277,247.396393 237.550247,284.645966 
	C185.336807,284.645966 132.451721,284.645966 79.067619,284.645966 
	C79.404457,280.189362 79.725769,275.938049 80.073570,271.234467 
M106.319023,240.924530 
	C112.936607,250.634369 122.988258,253.797760 132.665115,249.216034 
	C141.807236,244.887482 146.424957,234.524841 143.455078,225.002365 
	C140.004639,213.939011 127.553398,207.984894 116.526779,212.125397 
	C105.405594,216.301392 100.850006,228.452179 106.319023,240.924530 
z"/>
<path fill="#F3D3AA" opacity="1.000000" stroke="none" 
	d="
M320.726196,344.273804 
	C306.092926,329.675629 291.709686,315.327454 276.719360,300.373657 
	C330.193634,300.373657 382.917175,300.373657 436.204834,300.373657 
	C433.888092,343.313416 418.627563,380.702942 389.309021,412.861816 
	C366.395660,389.946716 343.685944,367.235260 320.726196,344.273804 
M395.062317,331.193512 
	C384.412781,327.104584 374.386536,330.048370 368.900726,338.874664 
	C363.904694,346.912842 365.342529,357.908203 372.416046,364.371216 
	C378.454437,369.888489 385.525757,371.422760 393.200653,368.561462 
	C401.281311,365.548981 405.822174,359.369720 406.446198,350.885620 
	C407.074402,342.344727 403.137421,335.885590 395.062317,331.193512 
z"/>
<path fill="#F2D2A9" opacity="1.000000" stroke="none" 
	d="
M371.000000,284.866821 
	C339.568115,284.866821 308.636200,284.866821 277.672150,284.866821 
	C315.388458,247.644760 352.954315,210.571198 390.895203,173.127487 
	C418.536743,203.511200 433.767944,241.111038 436.760712,284.866852 
	C414.881531,284.866852 393.190765,284.866852 371.000000,284.866821 
M360.651794,226.143723 
	C359.683472,227.286179 358.651062,228.380829 357.757172,229.578827 
	C351.805237,237.555573 351.585571,248.511612 357.178009,256.726807 
	C362.948578,265.203674 373.329041,269.130646 382.991974,266.492432 
	C392.690216,263.844574 399.327789,256.048035 400.631622,245.772766 
	C401.776093,236.753555 396.630127,227.249207 388.077179,222.585388 
	C379.178284,217.732925 369.672729,218.829193 360.651794,226.143723 
z"/>
<path fill="#F2D2A9" opacity="1.000000" stroke="none" 
	d="
M173.683380,365.683441 
	C157.529358,381.525421 141.625290,397.117340 125.400108,413.024078 
	C96.721649,381.334167 81.519402,343.748810 79.012383,300.457245 
	C132.097244,300.457245 184.791458,300.457245 238.884109,300.457245 
	C216.763794,322.586212 195.348557,344.009796 173.683380,365.683441 
M120.845879,369.958313 
	C121.834785,370.090912 122.820595,370.255615 123.813072,370.351105 
	C133.929657,371.324554 141.649338,367.285858 146.914597,358.781097 
	C151.949417,350.648529 151.184448,340.290009 145.379669,332.588928 
	C139.642014,324.976868 130.108368,321.502441 121.084625,323.734741 
	C110.569260,326.336121 103.355064,334.871643 102.829918,345.333099 
	C102.250778,356.870148 108.316719,365.473114 120.845879,369.958313 
z"/>
<path fill="#F3D3AA" opacity="1.000000" stroke="none" 
	d="
M240.049973,321.049255 
	C243.099579,317.744934 245.899078,314.690735 249.673264,310.573181 
	C249.673264,364.992828 249.673264,417.763062 249.673264,470.915466 
	C206.748123,468.489044 169.241302,453.305847 136.689484,424.408234 
	C171.150375,389.947845 205.475113,355.623596 240.049973,321.049255 
M224.019806,371.346649 
	C210.772903,364.418396 196.750641,368.415314 190.338211,380.947235 
	C184.301010,392.745880 189.318710,407.308624 201.411011,413.083527 
	C212.284332,418.276306 225.699448,414.244080 231.932037,403.909760 
	C238.524628,392.978485 235.647751,380.326630 224.019806,371.346649 
z"/>
<path fill="#F2D2A9" opacity="1.000000" stroke="none" 
	d="
M317.001343,362.798340 
	C337.097412,383.392700 357.193481,403.987061 377.601685,424.901337 
	C346.300293,453.203796 308.706696,468.488312 265.412537,471.331421 
	C265.412537,417.978973 265.412537,365.084564 265.412537,311.118408 
	C280.545776,326.202423 295.198395,340.807404 309.954163,355.936951 
	C310.057312,356.461548 309.974518,356.939972 309.568573,356.999817 
	C307.235992,356.622437 305.320068,356.129425 303.380920,355.757538 
	C294.518707,354.058044 285.158844,358.922638 281.160736,367.271332 
	C277.328644,375.273346 279.398956,385.345459 286.020630,390.915039 
	C293.451294,397.165009 303.767731,397.694061 311.433075,392.218323 
	C320.748474,385.563904 322.371826,375.351990 316.312439,362.995300 
	C316.550873,362.965668 317.001312,362.798370 317.001343,362.798340 
M288.901886,416.011749 
	C278.592346,421.056976 273.692719,430.944855 276.560272,440.918243 
	C279.654755,451.680908 290.741150,457.750000 301.785156,454.727295 
	C312.243256,451.864899 318.409515,440.650848 315.420441,429.929718 
	C312.237244,418.512268 301.469452,412.605255 288.901886,416.011749 
z"/>
<path fill="#F3D3AA" opacity="1.000000" stroke="none" 
	d="
M150.512451,174.487366 
	C145.684860,169.889038 141.107315,165.540665 136.319107,160.992188 
	C168.946976,131.533401 206.408295,116.122841 249.730591,113.732796 
	C249.730591,166.904480 249.730591,219.769531 249.730591,273.706787 
	C216.352737,240.328476 183.557602,207.532913 150.512451,174.487366 
M199.439285,177.146927 
	C200.781281,176.498489 202.184662,175.951920 203.455673,175.185730 
	C214.846268,168.319260 218.407318,153.401321 211.382812,142.122314 
	C204.471359,131.024826 188.849075,127.419098 178.100815,134.440598 
	C168.174789,140.924957 164.408951,153.555557 169.263550,164.290207 
	C174.385361,175.615692 187.338348,181.576920 199.439285,177.146927 
M245.973190,213.840652 
	C244.632797,205.138031 240.009995,199.033966 231.412643,196.681610 
	C223.747742,194.584366 216.482452,195.561981 210.661835,201.609085 
	C204.400009,208.114563 203.398376,217.734406 207.993896,225.637482 
	C212.778061,233.864975 222.191101,237.983688 231.019516,235.712448 
	C240.185898,233.354279 245.919220,225.319519 245.973190,213.840652 
z"/>
<path fill="#472A11" opacity="1.000000" stroke="none" 
	d="
M316.958435,362.468750 
	C317.001312,362.798370 316.550873,362.965668 315.973450,362.943542 
	C313.588867,360.927612 311.781708,358.933807 309.974518,356.939972 
	C309.974518,356.939972 310.057312,356.461548 310.129822,356.229858 
	C312.440063,358.045135 314.677826,360.092102 316.958435,362.468750 
z"/>
<path fill="#F1D1A8" opacity="1.000000" stroke="none" 
	d="
M294.393066,100.999893 
	C294.393250,81.530029 294.393250,62.560177 294.393250,42.799213 
	C337.875763,45.075481 375.384094,60.384617 407.396057,88.786301 
	C369.700745,126.453484 332.275330,163.850967 294.392914,201.705109 
	C294.392914,168.216156 294.392914,134.858032 294.393066,100.999893 
M330.166260,150.738739 
	C331.142914,150.543777 332.126862,150.379608 333.095093,150.149200 
	C344.555237,147.421860 351.157898,136.686569 348.230682,125.555008 
	C345.239807,114.181412 333.917816,107.704323 322.744415,110.974800 
	C313.556000,113.664261 307.528381,123.458275 308.817963,133.603333 
	C310.101807,143.703262 317.978485,150.309341 330.166260,150.738739 
z"/>
<path fill="#EEBE48" opacity="1.000000" stroke="none" 
	d="
M401.776306,51.226547 
	C410.349487,57.749546 418.630920,64.061722 427.264771,70.642479 
	C423.957642,73.715660 421.449249,76.046593 418.604767,78.689835 
	C382.930450,46.630299 340.728943,29.341434 292.378754,27.159107 
	C292.277252,25.255306 292.169525,23.949902 292.146820,22.643023 
	C292.112671,20.675642 292.137970,18.707232 292.137970,16.131144 
	C332.175140,17.588337 368.488373,29.029520 401.776306,51.226547 
z"/>
<path fill="#462810" opacity="1.000000" stroke="none" 
	d="
M106.154861,240.575989 
	C100.850006,228.452179 105.405594,216.301392 116.526779,212.125397 
	C127.553398,207.984894 140.004639,213.939011 143.455078,225.002365 
	C146.424957,234.524841 141.807236,244.887482 132.665115,249.216034 
	C122.988258,253.797760 112.936607,250.634369 106.154861,240.575989 
M126.375450,226.931412 
	C124.313011,227.200531 121.105377,226.794418 120.455597,227.896469 
	C119.472343,229.564087 119.399101,233.152161 120.555374,234.309448 
	C121.719330,235.474442 125.386086,235.531113 127.016907,234.535248 
	C130.018967,232.702026 129.371979,229.796387 126.375450,226.931412 
z"/>
<path fill="#472910" opacity="1.000000" stroke="none" 
	d="
M395.382629,331.398254 
	C403.137421,335.885590 407.074402,342.344727 406.446198,350.885620 
	C405.822174,359.369720 401.281311,365.548981 393.200653,368.561462 
	C385.525757,371.422760 378.454437,369.888489 372.416046,364.371216 
	C365.342529,357.908203 363.904694,346.912842 368.900726,338.874664 
	C374.386536,330.048370 384.412781,327.104584 395.382629,331.398254 
M382.337372,352.969696 
	C385.569580,355.461426 388.657806,355.180054 390.638306,351.664307 
	C392.281097,348.748077 390.969727,346.018494 387.858551,344.984833 
	C386.460968,344.520508 383.670410,344.939148 383.140747,345.877014 
	C382.111969,347.698608 382.233795,350.170013 382.337372,352.969696 
z"/>
<path fill="#472911" opacity="1.000000" stroke="none" 
	d="
M360.929352,225.914001 
	C369.672729,218.829193 379.178284,217.732925 388.077179,222.585388 
	C396.630127,227.249207 401.776093,236.753555 400.631622,245.772766 
	C399.327789,256.048035 392.690216,263.844574 382.991974,266.492432 
	C373.329041,269.130646 362.948578,265.203674 357.178009,256.726807 
	C351.585571,248.511612 351.805237,237.555573 357.757172,229.578827 
	C358.651062,228.380829 359.683472,227.286179 360.929352,225.914001 
M370.787384,237.406967 
	C367.427002,243.046219 368.028687,247.826859 372.414825,250.337952 
	C376.576904,252.720795 381.640320,251.442734 384.032806,247.260269 
	C385.949951,243.908859 385.908508,240.408722 383.174866,237.625015 
	C379.634247,234.019531 375.502960,234.268951 370.787384,237.406967 
z"/>
<path fill="#462910" opacity="1.000000" stroke="none" 
	d="
M120.454865,369.866638 
	C108.316719,365.473114 102.250778,356.870148 102.829918,345.333099 
	C103.355064,334.871643 110.569260,326.336121 121.084625,323.734741 
	C130.108368,321.502441 139.642014,324.976868 145.379669,332.588928 
	C151.184448,340.290009 151.949417,350.648529 146.914597,358.781097 
	C141.649338,367.285858 133.929657,371.324554 123.813072,370.351105 
	C122.820595,370.255615 121.834785,370.090912 120.454865,369.866638 
M125.704796,355.043152 
	C131.816147,354.566681 135.505814,350.721222 134.692673,345.675781 
	C133.888428,340.685547 129.426971,337.726654 124.357124,338.914520 
	C120.445030,339.831146 118.322258,342.591309 118.155113,346.393311 
	C117.955269,350.938751 120.393730,353.884583 125.704796,355.043152 
z"/>
<path fill="#472911" opacity="1.000000" stroke="none" 
	d="
M224.321701,371.557831 
	C235.647751,380.326630 238.524628,392.978485 231.932037,403.909760 
	C225.699448,414.244080 212.284332,418.276306 201.411011,413.083527 
	C189.318710,407.308624 184.301010,392.745880 190.338211,380.947235 
	C196.750641,368.415314 210.772903,364.418396 224.321701,371.557831 
M219.424408,388.394989 
	C217.678253,384.329926 214.284439,382.211487 210.313843,383.493683 
	C207.794540,384.307159 204.801071,387.060272 204.207611,389.480011 
	C203.602814,391.945923 204.857758,396.221191 206.795181,397.597778 
	C208.974258,399.146118 213.154663,399.278900 215.872940,398.331055 
	C219.714493,396.991516 220.586624,393.128418 219.424408,388.394989 
z"/>
<path fill="#46280F" opacity="1.000000" stroke="none" 
	d="
M309.568573,356.999817 
	C311.781708,358.933807 313.588867,360.927612 315.735046,362.973175 
	C322.371826,375.351990 320.748474,385.563904 311.433075,392.218323 
	C303.767731,397.694061 293.451294,397.165009 286.020630,390.915039 
	C279.398956,385.345459 277.328644,375.273346 281.160736,367.271332 
	C285.158844,358.922638 294.518707,354.058044 303.380920,355.757538 
	C305.320068,356.129425 307.235992,356.622437 309.568573,356.999817 
M303.107666,372.064972 
	C300.763245,372.158325 298.004974,371.560669 296.238342,372.618744 
	C295.266113,373.201050 295.179260,377.104065 296.145660,378.515289 
	C296.962860,379.708679 300.234375,380.332092 301.776306,379.681915 
	C304.768951,378.419983 305.390961,375.606659 303.107666,372.064972 
z"/>
<path fill="#462810" opacity="1.000000" stroke="none" 
	d="
M289.297058,415.913727 
	C301.469452,412.605255 312.237244,418.512268 315.420441,429.929718 
	C318.409515,440.650848 312.243256,451.864899 301.785156,454.727295 
	C290.741150,457.750000 279.654755,451.680908 276.560272,440.918243 
	C273.692719,430.944855 278.592346,421.056976 289.297058,415.913727 
M290.916412,436.223724 
	C292.505280,439.917328 295.174042,441.533691 298.574890,438.907898 
	C299.857697,437.917480 300.752441,434.939941 300.205109,433.471771 
	C299.631714,431.933594 296.496948,429.820129 295.574829,430.258362 
	C293.613678,431.190369 292.361145,433.613434 290.916412,436.223724 
z"/>
<path fill="#472911" opacity="1.000000" stroke="none" 
	d="
M199.067383,177.272598 
	C187.338348,181.576920 174.385361,175.615692 169.263550,164.290207 
	C164.408951,153.555557 168.174789,140.924957 178.100815,134.440598 
	C188.849075,127.419098 204.471359,131.024826 211.382812,142.122314 
	C218.407318,153.401321 214.846268,168.319260 203.455673,175.185730 
	C202.184662,175.951920 200.781281,176.498489 199.067383,177.272598 
M191.535187,162.973297 
	C197.312561,161.909805 199.968948,159.144653 199.749863,154.422211 
	C199.555374,150.229843 196.062012,146.506744 191.939240,146.097931 
	C187.961151,145.703476 184.035126,148.913467 183.157455,153.278122 
	C182.223450,157.922760 184.826233,161.238373 191.535187,162.973297 
z"/>
<path fill="#472910" opacity="1.000000" stroke="none" 
	d="
M245.990845,214.273666 
	C245.919220,225.319519 240.185898,233.354279 231.019516,235.712448 
	C222.191101,237.983688 212.778061,233.864975 207.993896,225.637482 
	C203.398376,217.734406 204.400009,208.114563 210.661835,201.609085 
	C216.482452,195.561981 223.747742,194.584366 231.412643,196.681610 
	C240.009995,199.033966 244.632797,205.138031 245.990845,214.273666 
M223.283768,220.620224 
	C226.881668,221.689301 229.879105,220.859009 230.086624,216.818115 
	C230.177673,215.045166 228.435379,212.571075 226.811356,211.537460 
	C225.784775,210.884079 222.858292,211.767044 221.805328,212.905518 
	C219.616196,215.272446 220.013763,218.016037 223.283768,220.620224 
z"/>
<path fill="#472910" opacity="1.000000" stroke="none" 
	d="
M329.748413,150.772858 
	C317.978485,150.309341 310.101807,143.703262 308.817963,133.603333 
	C307.528381,123.458275 313.556000,113.664261 322.744415,110.974800 
	C333.917816,107.704323 345.239807,114.181412 348.230682,125.555008 
	C351.157898,136.686569 344.555237,147.421860 333.095093,150.149200 
	C332.126862,150.379608 331.142914,150.543777 329.748413,150.772858 
M330.081238,134.982193 
	C331.243988,133.092941 333.605865,130.929550 333.253174,129.386719 
	C332.850342,127.624420 330.151794,125.548836 328.218719,125.280319 
	C327.007324,125.112053 324.463440,127.840118 324.111664,129.589294 
	C323.402985,133.112930 325.579742,135.109558 330.081238,134.982193 
z"/>
<path fill="#BACF5F" opacity="1.000000" stroke="none" 
	d="
M126.685837,227.164551 
	C129.371979,229.796387 130.018967,232.702026 127.016907,234.535248 
	C125.386086,235.531113 121.719330,235.474442 120.555374,234.309448 
	C119.399101,233.152161 119.472343,229.564087 120.455597,227.896469 
	C121.105377,226.794418 124.313011,227.200531 126.685837,227.164551 
z"/>
<path fill="#BBD05F" opacity="1.000000" stroke="none" 
	d="
M382.108154,352.670959 
	C382.233795,350.170013 382.111969,347.698608 383.140747,345.877014 
	C383.670410,344.939148 386.460968,344.520508 387.858551,344.984833 
	C390.969727,346.018494 392.281097,348.748077 390.638306,351.664307 
	C388.657806,355.180054 385.569580,355.461426 382.108154,352.670959 
z"/>
<path fill="#FBF5E4" opacity="1.000000" stroke="none" 
	d="
M371.087799,237.138931 
	C375.502960,234.268951 379.634247,234.019531 383.174866,237.625015 
	C385.908508,240.408722 385.949951,243.908859 384.032806,247.260269 
	C381.640320,251.442734 376.576904,252.720795 372.414825,250.337952 
	C368.028687,247.826859 367.427002,243.046219 371.087799,237.138931 
z"/>
<path fill="#BCD360" opacity="1.000000" stroke="none" 
	d="
M125.304001,355.003601 
	C120.393730,353.884583 117.955269,350.938751 118.155113,346.393311 
	C118.322258,342.591309 120.445030,339.831146 124.357124,338.914520 
	C129.426971,337.726654 133.888428,340.685547 134.692673,345.675781 
	C135.505814,350.721222 131.816147,354.566681 125.304001,355.003601 
z"/>
<path fill="#F9F3E2" opacity="1.000000" stroke="none" 
	d="
M219.566010,388.767181 
	C220.586624,393.128418 219.714493,396.991516 215.872940,398.331055 
	C213.154663,399.278900 208.974258,399.146118 206.795181,397.597778 
	C204.857758,396.221191 203.602814,391.945923 204.207611,389.480011 
	C204.801071,387.060272 207.794540,384.307159 210.313843,383.493683 
	C214.284439,382.211487 217.678253,384.329926 219.566010,388.767181 
z"/>
<path fill="#FBF6E5" opacity="1.000000" stroke="none" 
	d="
M303.388336,372.334778 
	C305.390961,375.606659 304.768951,378.419983 301.776306,379.681915 
	C300.234375,380.332092 296.962860,379.708679 296.145660,378.515289 
	C295.179260,377.104065 295.266113,373.201050 296.238342,372.618744 
	C298.004974,371.560669 300.763245,372.158325 303.388336,372.334778 
z"/>
<path fill="#BAD05F" opacity="1.000000" stroke="none" 
	d="
M290.867249,435.824524 
	C292.361145,433.613434 293.613678,431.190369 295.574829,430.258362 
	C296.496948,429.820129 299.631714,431.933594 300.205109,433.471771 
	C300.752441,434.939941 299.857697,437.917480 298.574890,438.907898 
	C295.174042,441.533691 292.505280,439.917328 290.867249,435.824524 
z"/>
<path fill="#F9F3E2" opacity="1.000000" stroke="none" 
	d="
M191.136841,162.954361 
	C184.826233,161.238373 182.223450,157.922760 183.157455,153.278122 
	C184.035126,148.913467 187.961151,145.703476 191.939240,146.097931 
	C196.062012,146.506744 199.555374,150.229843 199.749863,154.422211 
	C199.968948,159.144653 197.312561,161.909805 191.136841,162.954361 
z"/>
<path fill="#BBD160" opacity="1.000000" stroke="none" 
	d="
M222.970367,220.394348 
	C220.013763,218.016037 219.616196,215.272446 221.805328,212.905518 
	C222.858292,211.767044 225.784775,210.884079 226.811356,211.537460 
	C228.435379,212.571075 230.177673,215.045166 230.086624,216.818115 
	C229.879105,220.859009 226.881668,221.689301 222.970367,220.394348 
z"/>
<path fill="#BACF5F" opacity="1.000000" stroke="none" 
	d="
M329.689026,135.032288 
	C325.579742,135.109558 323.402985,133.112930 324.111664,129.589294 
	C324.463440,127.840118 327.007324,125.112053 328.218719,125.280319 
	C330.151794,125.548836 332.850342,127.624420 333.253174,129.386719 
	C333.605865,130.929550 331.243988,133.092941 329.689026,135.032288 
z"/>
</svg>