<svg version="1.1" id="Layer_1" xmlns="http://www.w3.org/2000/svg" xmlns:xlink="http://www.w3.org/1999/xlink" x="0px" y="0px"
	 width="100%" viewBox="0 0 512 512" enable-background="new 0 0 512 512" xml:space="preserve">
<path fill="none" opacity="1.000000" stroke="none" 
	d="
M301.000000,513.000000 
	C200.691025,513.000000 100.882042,513.000000 1.036533,513.000000 
	C1.036533,342.399323 1.036533,171.798660 1.036533,1.098988 
	C171.558990,1.098988 342.118042,1.098988 512.838562,1.098988 
	C512.838562,171.666550 512.838562,342.333252 512.838562,513.000000 
	C442.465302,513.000000 371.982635,513.000000 301.000000,513.000000 
M281.758942,325.963684 
	C282.670135,325.644501 283.572815,325.298248 284.493713,325.010162 
	C306.914764,317.995422 329.341644,310.999420 351.758698,303.971985 
	C363.356812,300.336212 374.957031,296.705353 386.522186,292.966644 
	C401.727325,288.051270 416.898804,283.031860 432.875641,278.010193 
	C440.940948,275.370148 449.006226,272.730072 457.856750,269.994263 
	C458.757629,269.661530 459.632904,269.198944 460.563232,269.015717 
	C472.567444,266.651306 482.215240,260.538605 490.257568,251.343491 
	C502.540649,237.299713 505.452301,220.985382 501.846558,203.397491 
	C499.348541,191.212753 493.187408,180.813263 482.910583,172.619110 
	C481.738586,171.043839 480.720398,169.320908 479.371307,167.915665 
	C461.743622,149.554581 443.491699,131.813248 422.998077,116.668510 
	C395.530670,96.370125 366.478760,78.640228 334.313904,64.844093 
	C330.968140,63.235538 327.713104,61.392696 324.261902,60.056545 
	C302.144806,51.493835 279.883209,43.279942 256.615051,38.400444 
	C246.381256,36.254345 236.329071,33.050312 225.384369,34.837620 
	C209.245010,37.473228 196.447937,44.669430 186.948074,58.095932 
	C174.518936,75.662468 174.430832,103.538948 188.972336,122.716049 
	C186.952484,125.784363 184.932648,128.852676 182.302841,132.199829 
	C178.314224,135.858643 174.447784,139.662155 170.315659,143.150986 
	C153.267868,157.544830 136.139496,171.843231 118.172371,186.024933 
	C117.344421,186.013000 116.494774,186.118973 115.691795,185.971283 
	C105.076202,184.018570 94.562279,184.249359 84.385971,188.051849 
	C75.693802,191.299789 67.571671,197.846329 69.027626,208.864304 
	C68.474960,214.450745 69.079117,219.721283 72.872353,224.658218 
	C68.231438,228.503296 63.590530,232.348358 58.346695,235.741974 
	C57.919788,234.510513 57.326485,233.309128 57.097313,232.041916 
	C56.421574,228.305374 54.329586,226.429138 50.555241,227.275726 
	C46.816555,228.114288 45.615986,231.397369 46.883766,235.829880 
	C47.730881,238.791641 48.296799,241.833847 48.369682,245.127304 
	C45.047955,248.788834 41.729626,252.453430 38.403843,256.111267 
	C29.210657,266.222290 22.855789,278.004395 17.994406,290.676483 
	C11.777852,306.881012 10.142662,323.743225 11.060952,340.898834 
	C11.635484,351.632294 13.721023,362.108093 18.026173,372.763367 
	C19.026621,375.473022 20.012218,378.188293 21.029919,380.891449 
	C27.787634,398.841248 34.826759,416.691528 41.211143,434.773010 
	C45.011726,445.536835 48.214493,456.561554 50.844402,467.668274 
	C52.186913,473.338013 51.667568,479.447357 52.003014,485.357269 
	C52.255486,489.805298 55.374771,493.097870 59.218224,493.000061 
	C64.002472,492.878326 65.974373,490.687347 66.003517,485.504150 
	C66.032501,480.348816 66.085411,475.193634 66.945168,470.007111 
	C71.746704,470.497437 75.037224,468.402100 77.711372,463.736023 
	C78.805450,460.349945 79.782890,456.920807 81.013206,453.584991 
	C87.329338,436.459656 90.904144,418.286926 100.295433,402.338470 
	C108.821373,387.859619 121.138710,377.533417 136.906174,372.096680 
	C158.778625,364.554871 180.952606,357.887543 203.743530,350.733795 
	C207.152451,349.773285 210.561371,348.812744 214.637741,348.135376 
	C221.634628,358.569855 224.573456,370.397339 224.860306,382.634766 
	C225.360077,403.955963 224.972916,425.297424 225.049622,446.630066 
	C225.055695,448.319702 225.305817,450.368408 226.265274,451.619049 
	C228.204636,454.146973 230.850723,455.353668 234.287201,454.062408 
	C237.652939,452.797668 239.059875,450.729401 239.053909,447.063324 
	C238.995193,411.065338 239.060059,375.067108 239.872330,339.007843 
	C244.532974,337.680115 249.193619,336.352386 253.982452,335.951080 
	C253.988037,350.556549 253.987473,365.162048 254.002808,379.767517 
	C254.007614,384.335571 257.259369,388.074768 261.110107,387.994080 
	C264.933502,387.914001 267.915344,384.175415 268.012390,379.547516 
	C268.358459,363.048126 268.753876,346.549774 269.884003,330.012360 
	C273.582581,328.623749 277.281128,327.235107 281.758942,325.963684 
z"/>
<path fill="#F9D129" opacity="1.000000" stroke="none" 
	d="
M239.089813,339.068970 
	C239.060059,375.067108 238.995193,411.065338 239.053909,447.063324 
	C239.059875,450.729401 237.652939,452.797668 234.287201,454.062408 
	C230.850723,455.353668 228.204636,454.146973 226.265274,451.619049 
	C225.305817,450.368408 225.055695,448.319702 225.049622,446.630066 
	C224.972916,425.297424 225.360077,403.955963 224.860306,382.634766 
	C224.573456,370.397339 221.634628,358.569855 214.302155,347.641174 
	C211.997955,344.787109 210.396133,341.933807 207.998245,340.151459 
	C196.575134,331.660461 183.870483,331.643585 170.933777,335.659546 
	C155.701202,340.388184 140.486816,345.212708 125.442146,350.500916 
	C101.433075,358.940125 85.418266,375.479218 75.756187,399.055939 
	C66.342674,422.026154 64.891487,445.777985 66.127823,470.038391 
	C66.085411,475.193634 66.032501,480.348816 66.003517,485.504150 
	C65.974373,490.687347 64.002472,492.878326 59.218224,493.000061 
	C55.374771,493.097870 52.255486,489.805298 52.003014,485.357269 
	C51.667568,479.447357 52.186913,473.338013 50.844402,467.668274 
	C48.214493,456.561554 45.011726,445.536835 41.211143,434.773010 
	C34.826759,416.691528 27.787634,398.841248 21.029919,380.891449 
	C20.012218,378.188293 19.026621,375.473022 18.302801,372.096924 
	C24.566124,352.840240 31.186161,334.528046 42.436127,318.015320 
	C44.002377,317.933807 45.274796,318.214142 46.259171,317.803680 
	C49.004101,316.659149 51.629616,315.228210 54.302284,313.910339 
	C53.026249,311.446655 51.750214,308.983002 50.789192,306.308594 
	C53.597260,303.706818 55.807110,300.888977 58.639549,299.009338 
	C65.545876,294.426239 72.740654,290.277802 79.868301,286.375580 
	C80.039734,287.915314 80.162170,289.033813 80.194321,290.576477 
	C78.794960,299.645874 82.906044,305.634918 90.114304,309.331299 
	C106.650993,317.811218 123.432251,317.673523 139.772919,308.841095 
	C146.530121,305.188751 150.285370,299.233948 148.870590,290.584717 
	C148.277435,286.464478 147.635330,282.780487 147.449463,279.084534 
	C178.217072,276.593781 207.449265,269.670929 235.788391,257.913727 
	C251.637451,266.899597 267.732635,267.375702 284.042725,260.659637 
	C294.185120,256.483307 297.797668,250.154114 296.842896,239.663818 
	C297.795441,233.628204 295.820953,229.015930 291.668976,225.423584 
	C289.301971,223.375610 286.514954,221.813019 283.994019,219.666321 
	C288.763916,208.911560 290.633240,198.253510 287.286316,187.047699 
	C286.916626,185.809998 287.024567,184.429688 287.253052,183.200806 
	C325.666809,203.880707 361.542542,227.823669 395.679810,254.389648 
	C397.785339,256.028198 399.111237,258.668549 400.426514,260.903046 
	C363.829926,272.748199 327.579956,284.451965 291.397827,296.361969 
	C278.697327,300.542572 268.555084,316.263824 269.130646,330.051025 
	C268.753876,346.549774 268.358459,363.048126 268.012390,379.547516 
	C267.915344,384.175415 264.933502,387.914001 261.110107,387.994080 
	C257.259369,388.074768 254.007614,384.335571 254.002808,379.767517 
	C253.987473,365.162048 253.988037,350.556549 253.991226,335.088684 
	C253.456177,332.026978 253.427155,329.474487 252.227188,327.725281 
	C250.966949,325.888214 248.641510,323.836121 246.675690,323.723328 
	C245.055923,323.630402 242.461517,325.909454 241.748962,327.710846 
	C240.334076,331.287842 239.918396,335.260071 239.089813,339.068970 
M43.693352,364.949097 
	C45.399342,371.327850 48.515965,374.261841 54.894333,374.108673 
	C70.202263,373.740997 81.097298,365.608124 89.169342,353.292908 
	C92.115974,348.797333 93.326363,343.614319 89.776642,338.786926 
	C86.165619,333.876190 80.862289,333.338623 75.361275,334.523163 
	C63.639400,337.047180 54.114410,343.188690 47.474751,353.145569 
	C45.376709,356.291809 44.843319,360.481415 43.693352,364.949097 
M232.915207,298.825348 
	C236.446320,298.544220 238.580414,296.875793 238.171310,293.093292 
	C237.775009,289.429047 235.109756,288.805481 232.015503,288.818878 
	C224.547958,288.851288 217.080032,288.854431 209.612549,288.814667 
	C206.204803,288.796509 203.020050,289.193909 202.885681,293.530823 
	C202.744110,298.100433 205.948425,298.852783 209.609818,298.848816 
	C217.077515,298.840698 224.545197,298.844879 232.915207,298.825348 
M341.386383,251.122208 
	C335.232819,246.620941 329.808441,246.969009 325.606293,252.134766 
	C322.647064,255.772598 323.231171,258.940735 327.701935,260.101288 
	C331.135651,260.992645 334.980011,261.200500 338.492584,260.688690 
	C344.430267,259.823486 345.366516,256.835480 341.386383,251.122208 
z"/>
<path fill="#F9A213" opacity="1.000000" stroke="none" 
	d="
M334.978821,65.165436 
	C366.478760,78.640228 395.530670,96.370125 422.998077,116.668510 
	C443.491699,131.813248 461.743622,149.554581 479.371307,167.915665 
	C480.720398,169.320908 481.738586,171.043839 482.571014,172.894684 
	C481.828369,173.097748 481.425323,173.025253 480.842743,172.668091 
	C463.312195,159.961761 444.715302,158.432419 425.636322,167.298325 
	C398.910950,179.717438 386.906281,213.581665 400.051788,238.345978 
	C400.824402,240.426987 401.553436,242.157837 401.914093,243.868225 
	C400.809540,243.491150 399.988983,243.246063 399.349243,242.761978 
	C370.073059,220.608490 339.835693,199.883881 307.936829,181.668106 
	C299.455383,176.824814 290.656281,172.537796 281.767761,167.748749 
	C273.355804,163.671219 265.179108,159.840302 256.999390,155.757919 
	C256.995514,155.338821 256.994720,155.171173 256.967163,154.582977 
	C255.234802,143.547028 255.102432,132.935486 258.327850,122.604973 
	C266.294830,97.088051 283.733093,80.589569 308.523376,71.811607 
	C317.056427,68.790146 326.144379,67.335732 334.978821,65.165436 
z"/>
<path fill="#F9DB54" opacity="1.000000" stroke="none" 
	d="
M286.911011,183.115509 
	C287.024567,184.429688 286.916626,185.809998 287.286316,187.047699 
	C290.633240,198.253510 288.763916,208.911560 283.624634,219.608490 
	C267.225311,214.206589 251.590805,214.081863 236.648956,222.974091 
	C230.247009,226.784027 226.983673,232.422012 228.172333,240.558594 
	C226.884109,248.204803 230.287231,253.398880 235.481262,257.805695 
	C207.449265,269.670929 178.217072,276.593781 147.173065,278.888214 
	C134.475693,263.877686 104.242805,262.547150 88.176270,273.549042 
	C83.828491,276.526306 80.574677,280.452881 79.819290,285.954346 
	C72.740654,290.277802 65.545876,294.426239 58.639549,299.009338 
	C55.807110,300.888977 53.597260,303.706818 50.477074,306.134705 
	C48.636494,305.677429 47.461601,305.025879 46.202660,304.717529 
	C41.673550,303.608154 35.219296,306.961243 34.300442,311.325928 
	C33.068741,317.176666 38.413219,316.470123 41.544716,317.899353 
	C41.693764,317.967377 41.855167,318.008301 42.010818,318.061859 
	C31.186161,334.528046 24.566124,352.840240 18.371235,371.715973 
	C13.721023,362.108093 11.635484,351.632294 11.060952,340.898834 
	C10.142662,323.743225 11.777852,306.881012 17.994406,290.676483 
	C22.855789,278.004395 29.210657,266.222290 38.403843,256.111267 
	C41.729626,252.453430 45.047955,248.788834 49.007126,245.157318 
	C51.011101,249.083572 51.953476,253.215836 53.932209,256.771362 
	C54.851402,258.423004 57.790222,259.712219 59.803047,259.697906 
	C60.945343,259.689789 62.535625,256.845764 63.046093,255.031830 
	C63.441704,253.626022 62.478710,251.836288 62.114204,250.218460 
	C61.060818,245.543121 60.004684,240.868393 58.949623,236.193420 
	C63.590530,232.348358 68.231438,228.503296 73.347473,224.421021 
	C84.258034,232.705078 96.486572,235.079285 109.449303,233.856705 
	C120.825378,232.783798 131.376389,229.523468 138.168335,219.152832 
	C146.573349,220.928558 154.643646,223.318344 162.826813,223.803009 
	C181.427185,224.904709 199.716644,222.495193 216.876312,214.801102 
	C237.504715,205.551697 253.813293,192.320816 257.358704,168.049408 
	C266.772400,172.494843 275.829987,176.881470 285.061218,181.481415 
	C285.793549,182.168320 286.352264,182.641922 286.911011,183.115509 
M172.199371,241.099670 
	C171.051529,241.212433 169.802582,241.072113 168.773911,241.483139 
	C164.954453,243.009262 160.723175,245.348816 161.525192,249.659821 
	C161.907379,251.714157 166.629456,253.633514 169.684967,254.366562 
	C174.752151,255.582245 180.844833,253.007095 181.604263,250.232468 
	C182.390640,247.359360 178.605621,243.402969 172.199371,241.099670 
z"/>
<path fill="#FDBB29" opacity="1.000000" stroke="none" 
	d="
M334.646362,65.004768 
	C326.144379,67.335732 317.056427,68.790146 308.523376,71.811607 
	C283.733093,80.589569 266.294830,97.088051 258.327850,122.604973 
	C255.102432,132.935486 255.234802,143.547028 256.602478,154.523621 
	C241.875961,149.447266 227.358337,144.320450 213.158890,138.427078 
	C207.035187,135.885468 201.461838,131.923721 195.853500,128.276474 
	C193.261963,126.591133 191.185974,124.112999 188.876251,121.994308 
	C174.430832,103.538948 174.518936,75.662468 186.948074,58.095932 
	C196.447937,44.669430 209.245010,37.473228 225.384369,34.837620 
	C236.329071,33.050312 246.381256,36.254345 256.615051,38.400444 
	C279.883209,43.279942 302.144806,51.493835 324.261902,60.056545 
	C327.713104,61.392696 330.968140,63.235538 334.646362,65.004768 
M210.770355,84.807808 
	C211.168137,72.341484 217.135773,64.120361 229.235535,60.563431 
	C230.032700,60.329090 230.859619,60.116951 231.584702,59.729713 
	C235.096878,57.854004 236.765610,55.046066 235.452026,51.069256 
	C234.223099,47.348724 230.608795,45.693981 226.591736,46.815479 
	C211.483719,51.033413 200.649323,66.386055 201.986618,82.077126 
	C202.143112,83.913338 203.424026,86.512772 204.876144,87.130463 
	C206.244217,87.712402 208.527130,86.143646 210.770355,84.807808 
M214.325119,102.158089 
	C212.046982,99.079170 208.801453,97.691193 205.673798,99.799515 
	C203.696671,101.132271 201.717484,104.316620 201.904037,106.484161 
	C202.091461,108.661987 204.569260,111.373901 206.742737,112.491226 
	C210.764893,114.558907 217.600082,109.553360 214.325119,102.158089 
z"/>
<path fill="#F8E975" opacity="1.000000" stroke="none" 
	d="
M257.002625,167.990570 
	C253.813293,192.320816 237.504715,205.551697 216.876312,214.801102 
	C199.716644,222.495193 181.427185,224.904709 162.826813,223.803009 
	C154.643646,223.318344 146.573349,220.928558 138.211853,218.758621 
	C138.202301,215.765121 138.432678,213.416733 138.746521,210.632690 
	C138.864990,199.267731 134.841919,193.336899 124.600563,189.038727 
	C122.684402,188.234543 120.890862,187.138229 119.040733,186.176712 
	C136.139496,171.843231 153.267868,157.544830 170.315659,143.150986 
	C174.447784,139.662155 178.314224,135.858643 182.916046,132.206146 
	C190.604660,137.350113 197.063675,143.881699 204.882156,147.338928 
	C221.834503,154.835068 239.482071,160.758972 256.873352,167.494232 
	C256.901306,167.662704 257.002625,167.990570 257.002625,167.990570 
M212.547806,193.212982 
	C217.082245,190.570770 220.723663,187.207993 220.330795,181.448364 
	C219.928513,175.550766 215.832993,172.236847 210.901917,170.217819 
	C199.490341,165.545319 187.862869,165.497391 176.392715,170.019852 
	C171.068451,172.119095 166.537231,175.621948 166.420486,181.913620 
	C166.298264,188.500488 170.952225,192.085892 176.477676,194.215317 
	C188.308792,198.774887 200.179459,198.651169 212.547806,193.212982 
z"/>
<path fill="#FED987" opacity="1.000000" stroke="none" 
	d="
M402.282440,243.888702 
	C401.553436,242.157837 400.824402,240.426987 400.398193,238.415955 
	C410.090698,243.618271 420.066223,246.129456 431.091370,246.161804 
	C460.701355,246.248627 487.713196,218.590530 483.111603,186.197205 
	C482.483124,181.772736 481.721954,177.367111 481.022217,172.952759 
	C481.425323,173.025253 481.828369,173.097748 482.529083,173.254517 
	C493.187408,180.813263 499.348541,191.212753 501.846558,203.397491 
	C505.452301,220.985382 502.540649,237.299713 490.257568,251.343491 
	C482.215240,260.538605 472.567444,266.651306 460.563232,269.015717 
	C459.632904,269.198944 458.757629,269.661530 457.002014,269.941193 
	C440.100159,271.334167 425.850555,266.860687 413.095276,256.582214 
	C409.370270,252.159302 405.826355,248.024002 402.282440,243.888702 
z"/>
<path fill="#F05F00" opacity="1.000000" stroke="none" 
	d="
M66.536499,470.022766 
	C64.891487,445.777985 66.342674,422.026154 75.756187,399.055939 
	C85.418266,375.479218 101.433075,358.940125 125.442146,350.500916 
	C140.486816,345.212708 155.701202,340.388184 170.933777,335.659546 
	C183.870483,331.643585 196.575134,331.660461 207.998245,340.151459 
	C210.396133,341.933807 211.997955,344.787109 213.968445,347.499573 
	C210.561371,348.812744 207.152451,349.773285 203.184326,350.511688 
	C201.311188,349.296082 200.098816,348.114899 198.666702,347.339752 
	C189.909500,342.599976 180.896210,344.158752 172.095993,346.911377 
	C157.653290,351.428986 143.292252,356.223907 128.991806,361.176300 
	C108.969688,368.110168 95.358513,381.786987 87.031525,401.191681 
	C78.371628,421.372131 75.832726,442.414978 77.042053,464.106659 
	C75.037224,468.402100 71.746704,470.497437 66.536499,470.022766 
z"/>
<path fill="#FF6A65" opacity="1.000000" stroke="none" 
	d="
M118.606552,186.100830 
	C120.890862,187.138229 122.684402,188.234543 124.600563,189.038727 
	C134.841919,193.336899 138.864990,199.267731 138.458145,210.743042 
	C131.072128,220.497955 121.186546,223.986908 110.220726,225.759628 
	C93.802704,228.413727 77.541275,221.534683 69.173927,207.962021 
	C67.571671,197.846329 75.693802,191.299789 84.385971,188.051849 
	C94.562279,184.249359 105.076202,184.018570 115.691795,185.971283 
	C116.494774,186.118973 117.344421,186.013000 118.606552,186.100830 
z"/>
<path fill="#FF9100" opacity="1.000000" stroke="none" 
	d="
M432.084778,278.057159 
	C416.898804,283.031860 401.727325,288.051270 386.522186,292.966644 
	C374.957031,296.705353 363.356812,300.336212 351.758698,303.971985 
	C329.341644,310.999420 306.914764,317.995422 284.493713,325.010162 
	C283.572815,325.298248 282.670135,325.644501 281.394348,325.532379 
	C283.487427,315.239197 288.839600,308.574860 299.124817,305.317474 
	C336.488708,293.484161 373.680817,281.108398 411.256409,269.093750 
	C418.411682,272.185883 425.248230,275.121521 432.084778,278.057159 
z"/>
<path fill="#FF9100" opacity="1.000000" stroke="none" 
	d="
M77.376709,463.921326 
	C75.832726,442.414978 78.371628,421.372131 87.031525,401.191681 
	C95.358513,381.786987 108.969688,368.110168 128.991806,361.176300 
	C143.292252,356.223907 157.653290,351.428986 172.095993,346.911377 
	C180.896210,344.158752 189.909500,342.599976 198.666702,347.339752 
	C200.098816,348.114899 201.311188,349.296082 202.811310,350.567688 
	C180.952606,357.887543 158.778625,364.554871 136.906174,372.096680 
	C121.138710,377.533417 108.821373,387.859619 100.295433,402.338470 
	C90.904144,418.286926 87.329338,436.459656 81.013206,453.584991 
	C79.782890,456.920807 78.805450,460.349945 77.376709,463.921326 
z"/>
<path fill="#F05F00" opacity="1.000000" stroke="none" 
	d="
M410.937714,268.937225 
	C373.680817,281.108398 336.488708,293.484161 299.124817,305.317474 
	C288.839600,308.574860 283.487427,315.239197 281.004700,325.473785 
	C277.281128,327.235107 273.582581,328.623749 269.507324,330.031677 
	C268.555084,316.263824 278.697327,300.542572 291.397827,296.361969 
	C327.579956,284.451965 363.829926,272.748199 400.725891,260.942444 
	C401.598846,260.936462 401.799133,260.951294 402.283112,261.141174 
	C405.357117,263.856506 408.147430,266.396881 410.937714,268.937225 
z"/>
<path fill="#FFA301" opacity="1.000000" stroke="none" 
	d="
M256.845367,167.325775 
	C239.482071,160.758972 221.834503,154.835068 204.882156,147.338928 
	C197.063675,143.881699 190.604660,137.350113 183.221024,132.066742 
	C184.932648,128.852676 186.952484,125.784363 188.924286,122.355179 
	C191.185974,124.112999 193.261963,126.591133 195.853500,128.276474 
	C201.461838,131.923721 207.035187,135.885468 213.158890,138.427078 
	C227.358337,144.320450 241.875961,149.447266 256.629242,154.944168 
	C256.994720,155.171173 256.995514,155.338821 256.998627,156.219269 
	C256.949097,160.396652 256.897217,163.861221 256.845367,167.325775 
z"/>
<path fill="#FF4D45" opacity="1.000000" stroke="none" 
	d="
M69.100777,208.413162 
	C77.541275,221.534683 93.802704,228.413727 110.220726,225.759628 
	C121.186546,223.986908 131.072128,220.497955 138.374695,211.178711 
	C138.432678,213.416733 138.202301,215.765121 137.928406,218.507706 
	C131.376389,229.523468 120.825378,232.783798 109.449303,233.856705 
	C96.486572,235.079285 84.258034,232.705078 73.497078,224.111542 
	C69.079117,219.721283 68.474960,214.450745 69.100777,208.413162 
z"/>
<path fill="#FF7101" opacity="1.000000" stroke="none" 
	d="
M411.256409,269.093750 
	C408.147430,266.396881 405.357117,263.856506 402.534973,260.894928 
	C406.094177,259.272400 409.685303,258.071106 413.276398,256.869812 
	C425.850555,266.860687 440.100159,271.334167 456.609406,269.989075 
	C449.006226,272.730072 440.940948,275.370148 432.480225,278.033691 
	C425.248230,275.121521 418.411682,272.185883 411.256409,269.093750 
z"/>
<path fill="#4DAB69" opacity="1.000000" stroke="none" 
	d="
M58.648163,235.967712 
	C60.004684,240.868393 61.060818,245.543121 62.114204,250.218460 
	C62.478710,251.836288 63.441704,253.626022 63.046093,255.031830 
	C62.535625,256.845764 60.945343,259.689789 59.803047,259.697906 
	C57.790222,259.712219 54.851402,258.423004 53.932209,256.771362 
	C51.953476,253.215836 51.011101,249.083572 49.316559,245.013702 
	C48.296799,241.833847 47.730881,238.791641 46.883766,235.829880 
	C45.615986,231.397369 46.816555,228.114288 50.555241,227.275726 
	C54.329586,226.429138 56.421574,228.305374 57.097313,232.041916 
	C57.326485,233.309128 57.919788,234.510513 58.648163,235.967712 
z"/>
<path fill="#F05F00" opacity="1.000000" stroke="none" 
	d="
M239.481079,339.038391 
	C239.918396,335.260071 240.334076,331.287842 241.748962,327.710846 
	C242.461517,325.909454 245.055923,323.630402 246.675690,323.723328 
	C248.641510,323.836121 250.966949,325.888214 252.227188,327.725281 
	C253.427155,329.474487 253.456177,332.026978 253.927124,334.625488 
	C249.193619,336.352386 244.532974,337.680115 239.481079,339.038391 
z"/>
<path fill="#FF6A64" opacity="1.000000" stroke="none" 
	d="
M79.868294,286.375580 
	C80.574677,280.452881 83.828491,276.526306 88.176270,273.549042 
	C104.242805,262.547150 134.475693,263.877686 146.716843,278.900146 
	C147.635330,282.780487 148.277435,286.464478 148.654083,290.824341 
	C145.407913,297.263184 140.457565,300.777710 134.649948,303.123291 
	C121.654053,308.372009 108.490753,308.461670 95.409599,303.556946 
	C88.754410,301.061554 82.955322,297.292023 80.284607,290.152313 
	C80.162170,289.033813 80.039734,287.915314 79.868294,286.375580 
z"/>
<path fill="#FF6A65" opacity="1.000000" stroke="none" 
	d="
M228.257126,240.131393 
	C226.983673,232.422012 230.247009,226.784027 236.648956,222.974091 
	C251.590805,214.081863 267.225311,214.206589 283.547729,219.974045 
	C286.514954,221.813019 289.301971,223.375610 291.668976,225.423584 
	C295.820953,229.015930 297.795441,233.628204 296.642334,239.905640 
	C293.436005,246.339996 288.743805,250.034973 282.885620,252.564835 
	C273.211914,256.742401 263.048615,256.861053 252.973938,255.614380 
	C242.576141,254.327713 233.461716,250.127304 228.257126,240.131393 
z"/>
<path fill="#FF8200" opacity="1.000000" stroke="none" 
	d="
M413.095276,256.582214 
	C409.685303,258.071106 406.094177,259.272400 402.251221,260.719910 
	C401.799133,260.951294 401.598846,260.936462 401.099182,260.882202 
	C399.111237,258.668549 397.785339,256.028198 395.679810,254.389648 
	C361.542542,227.823669 325.666809,203.880707 287.253052,183.200806 
	C286.352264,182.641922 285.793549,182.168320 285.085266,181.055374 
	C283.958130,176.275803 282.980560,172.135605 282.003021,167.995392 
	C290.656281,172.537796 299.455383,176.824814 307.936829,181.668106 
	C339.835693,199.883881 370.073059,220.608490 399.349243,242.761978 
	C399.988983,243.246063 400.809540,243.491150 401.914093,243.868225 
	C405.826355,248.024002 409.370270,252.159302 413.095276,256.582214 
z"/>
<path fill="#4EAC67" opacity="1.000000" stroke="none" 
	d="
M43.643608,364.571320 
	C44.843319,360.481415 45.376709,356.291809 47.474751,353.145569 
	C54.114410,343.188690 63.639400,337.047180 75.361275,334.523163 
	C80.862289,333.338623 86.165619,333.876190 89.776642,338.786926 
	C93.326363,343.614319 92.115974,348.797333 89.169342,353.292908 
	C81.097298,365.608124 70.202263,373.740997 54.894333,374.108673 
	C48.515965,374.261841 45.399342,371.327850 43.643608,364.571320 
M55.288177,359.102936 
	C54.762585,360.543945 54.236988,361.984955 53.663780,363.556519 
	C64.676697,365.115295 80.430046,353.967407 81.053535,343.930481 
	C70.125366,344.831512 62.153828,350.226807 55.288177,359.102936 
z"/>
<path fill="#FF5145" opacity="1.000000" stroke="none" 
	d="
M228.172333,240.558594 
	C233.461716,250.127304 242.576141,254.327713 252.973938,255.614380 
	C263.048615,256.861053 273.211914,256.742401 282.885620,252.564835 
	C288.743805,250.034973 293.436005,246.339996 296.562378,240.341766 
	C297.797668,250.154114 294.185120,256.483307 284.042725,260.659637 
	C267.732635,267.375702 251.637451,266.899597 235.788391,257.913727 
	C230.287231,253.398880 226.884109,248.204803 228.172333,240.558594 
z"/>
<path fill="#FF4D44" opacity="1.000000" stroke="none" 
	d="
M80.194321,290.576477 
	C82.955322,297.292023 88.754410,301.061554 95.409599,303.556946 
	C108.490753,308.461670 121.654053,308.372009 134.649948,303.123291 
	C140.457565,300.777710 145.407913,297.263184 148.605133,291.260559 
	C150.285370,299.233948 146.530121,305.188751 139.772919,308.841095 
	C123.432251,317.673523 106.650993,317.811218 90.114304,309.331299 
	C82.906044,305.634918 78.794960,299.645874 80.194321,290.576477 
z"/>
<path fill="#4EAC67" opacity="1.000000" stroke="none" 
	d="
M232.464050,298.834656 
	C224.545197,298.844879 217.077515,298.840698 209.609818,298.848816 
	C205.948425,298.852783 202.744110,298.100433 202.885681,293.530823 
	C203.020050,289.193909 206.204803,288.796509 209.612549,288.814667 
	C217.080032,288.854431 224.547958,288.851288 232.015503,288.818878 
	C235.109756,288.805481 237.775009,289.429047 238.171310,293.093292 
	C238.580414,296.875793 236.446320,298.544220 232.464050,298.834656 
z"/>
<path fill="#B64532" opacity="1.000000" stroke="none" 
	d="
M42.436127,318.015320 
	C41.855167,318.008301 41.693764,317.967377 41.544716,317.899353 
	C38.413219,316.470123 33.068741,317.176666 34.300442,311.325928 
	C35.219296,306.961243 41.673550,303.608154 46.202660,304.717529 
	C47.461601,305.025879 48.636494,305.677429 50.162056,306.345398 
	C51.750214,308.983002 53.026249,311.446655 54.302284,313.910339 
	C51.629616,315.228210 49.004101,316.659149 46.259171,317.803680 
	C45.274796,318.214142 44.002377,317.933807 42.436127,318.015320 
z"/>
<path fill="#B54331" opacity="1.000000" stroke="none" 
	d="
M341.652344,251.395004 
	C345.366516,256.835480 344.430267,259.823486 338.492584,260.688690 
	C334.980011,261.200500 331.135651,260.992645 327.701935,260.101288 
	C323.231171,258.940735 322.647064,255.772598 325.606293,252.134766 
	C329.808441,246.969009 335.232819,246.620941 341.652344,251.395004 
z"/>
<path fill="#FEE5AE" opacity="1.000000" stroke="none" 
	d="
M480.842712,172.668091 
	C481.721954,177.367111 482.483124,181.772736 483.111603,186.197205 
	C487.713196,218.590530 460.701355,246.248627 431.091370,246.161804 
	C420.066223,246.129456 410.090698,243.618271 400.354614,238.065796 
	C386.906281,213.581665 398.910950,179.717438 425.636322,167.298325 
	C444.715302,158.432419 463.312195,159.961761 480.842712,172.668091 
z"/>
<path fill="#FF9601" opacity="1.000000" stroke="none" 
	d="
M281.767761,167.748749 
	C282.980560,172.135605 283.958130,176.275803 284.911621,180.842056 
	C275.829987,176.881470 266.772400,172.494843 257.358704,168.049408 
	C257.002625,167.990570 256.901306,167.662704 256.873352,167.494232 
	C256.897217,163.861221 256.949097,160.396652 257.001709,156.470734 
	C265.179108,159.840302 273.355804,163.671219 281.767761,167.748749 
z"/>
<path fill="#BF5F32" opacity="1.000000" stroke="none" 
	d="
M172.587036,241.155899 
	C178.605621,243.402969 182.390640,247.359360 181.604263,250.232468 
	C180.844833,253.007095 174.752151,255.582245 169.684967,254.366562 
	C166.629456,253.633514 161.907379,251.714157 161.525192,249.659821 
	C160.723175,245.348816 164.954453,243.009262 168.773911,241.483139 
	C169.802582,241.072113 171.051529,241.212433 172.587036,241.155899 
z"/>
<path fill="#FFFDFA" opacity="1.000000" stroke="none" 
	d="
M210.588959,85.164429 
	C208.527130,86.143646 206.244217,87.712402 204.876144,87.130463 
	C203.424026,86.512772 202.143112,83.913338 201.986618,82.077126 
	C200.649323,66.386055 211.483719,51.033413 226.591736,46.815479 
	C230.608795,45.693981 234.223099,47.348724 235.452026,51.069256 
	C236.765610,55.046066 235.096878,57.854004 231.584702,59.729713 
	C230.859619,60.116951 230.032700,60.329090 229.235535,60.563431 
	C217.135773,64.120361 211.168137,72.341484 210.588959,85.164429 
z"/>
<path fill="#FFFDFA" opacity="1.000000" stroke="none" 
	d="
M214.523682,102.470871 
	C217.600082,109.553360 210.764893,114.558907 206.742737,112.491226 
	C204.569260,111.373901 202.091461,108.661987 201.904037,106.484161 
	C201.717484,104.316620 203.696671,101.132271 205.673798,99.799515 
	C208.801453,97.691193 212.046982,99.079170 214.523682,102.470871 
z"/>
<path fill="#4EAC69" opacity="1.000000" stroke="none" 
	d="
M212.225037,193.402588 
	C200.179459,198.651169 188.308792,198.774887 176.477676,194.215317 
	C170.952225,192.085892 166.298264,188.500488 166.420486,181.913620 
	C166.537231,175.621948 171.068451,172.119095 176.392715,170.019852 
	C187.862869,165.497391 199.490341,165.545319 210.901917,170.217819 
	C215.832993,172.236847 219.928513,175.550766 220.330795,181.448364 
	C220.723663,187.207993 217.082245,190.570770 212.225037,193.402588 
M192.567886,176.921936 
	C186.760910,176.952438 181.266235,177.873856 176.394821,181.770370 
	C184.325211,189.323364 203.560242,189.144775 210.164001,181.715103 
	C205.296249,177.509018 199.464172,176.997787 192.567886,176.921936 
z"/>
<path fill="#F3D02B" opacity="1.000000" stroke="none" 
	d="
M55.508621,358.791046 
	C62.153828,350.226807 70.125366,344.831512 81.053535,343.930481 
	C80.430046,353.967407 64.676697,365.115295 53.663780,363.556519 
	C54.236988,361.984955 54.762585,360.543945 55.508621,358.791046 
z"/>
<path fill="#F5E876" opacity="1.000000" stroke="none" 
	d="
M193.033508,176.915039 
	C199.464172,176.997787 205.296249,177.509018 210.164001,181.715103 
	C203.560242,189.144775 184.325211,189.323364 176.394821,181.770370 
	C181.266235,177.873856 186.760910,176.952438 193.033508,176.915039 
z"/>
</svg>